<?xml version="1.0" standalone="no"?>
<!DOCTYPE svg PUBLIC "-//W3C//DTD SVG 20010904//EN"
 "http://www.w3.org/TR/2001/REC-SVG-20010904/DTD/svg10.dtd">
<svg version="1.0" xmlns="http://www.w3.org/2000/svg"
 width="225.000000pt" height="225.000000pt" viewBox="0 0 225.000000 225.000000"
 preserveAspectRatio="xMidYMid meet">

<g transform="translate(0.000000,225.000000) scale(0.100000,-0.100000)"
fill="#000000" stroke="none">
<path d="M230 2078 c-36 -18 -49 -33 -64 -69 -36 -90 -46 -76 374 -497 209
-210 380 -382 380 -384 0 -2 -169 -172 -375 -378 -263 -263 -378 -385 -386
-408 -23 -71 14 -150 85 -177 92 -35 79 -45 502 376 l381 380 374 -380 c324
-329 379 -380 411 -386 78 -15 147 21 173 89 34 88 43 75 -375 494 -209 210
-380 382 -380 384 0 2 169 172 375 378 263 263 378 385 386 408 23 71 -14 150
-85 177 -92 35 -79 45 -501 -376 l-380 -379 -370 371 c-206 207 -384 377 -402
385 -45 19 -72 18 -123 -8z"/>
</g>
</svg>
