<?xml version="1.0" standalone="no"?>
<!DOCTYPE svg PUBLIC "-//W3C//DTD SVG 20010904//EN"
 "http://www.w3.org/TR/2001/REC-SVG-20010904/DTD/svg10.dtd">
<svg version="1.0" xmlns="http://www.w3.org/2000/svg"
 width="512" height="512" viewBox="0 0 512 512"
 preserveAspectRatio="xMidYMid meet">

<g transform="translate(0.000000,512.0) scale(0.100000,-0.100000)"
fill="#000000" stroke="none">
<path d="M1221 5105 c-217 -48 -400 -218 -472 -440 -36 -109 -33 -242 8 -360
l31 -90 -56 -60 c-466 -503 -705 -1208 -641 -1895 70 -763 467 -1425 1108
-1851 339 -226 722 -359 1141 -398 553 -52 1120 91 1581 398 568 377 954 954
1073 1605 60 325 60 607 0 932 -90 494 -341 957 -710 1314 -617 597 -1496 834
-2321 626 l-92 -24 -36 44 c-44 53 -143 125 -216 158 -122 53 -269 68 -398 41z
m267 -161 c164 -48 285 -171 336 -343 43 -144 -6 -301 -191 -614 -77 -130
-263 -407 -274 -407 -4 0 -52 66 -107 148 -253 375 -372 619 -372 764 0 199
141 386 340 449 71 23 195 24 268 3z m1320 -155 c236 -25 524 -104 732 -202
387 -180 747 -494 973 -849 l37 -58 -178 0 -178 0 -21 43 c-72 148 -209 265
-378 323 -69 24 -96 27 -195 28 -98 0 -127 -4 -196 -27 -195 -65 -341 -211
-410 -412 -23 -67 -27 -97 -27 -180 0 -86 5 -113 33 -195 50 -147 145 -328
284 -542 l56 -88 -83 0 -83 0 -197 -193 -197 -192 121 -198 122 -199 -84 -84
-84 -84 -267 0 -268 0 0 -475 0 -475 142 0 143 0 97 -97 98 -98 98 98 97 97
132 0 132 0 26 83 c13 45 67 222 119 392 l94 310 73 6 c41 4 107 18 148 33 41
14 76 26 78 26 1 0 29 -53 62 -118 l59 -118 -37 -284 -36 -284 -125 -40 -125
-41 -2 -150 -1 -150 -99 -42 c-572 -248 -1226 -259 -1798 -29 -109 44 -298
139 -302 152 -2 5 80 51 182 102 l185 92 0 175 0 174 -37 10 c-21 5 -82 21
-136 35 -54 13 -101 27 -104 29 -2 3 27 52 65 109 163 243 297 496 343 648 97
318 -104 663 -446 766 -94 29 -257 24 -361 -9 -185 -61 -342 -212 -405 -392
-37 -105 -45 -200 -26 -299 30 -149 153 -405 307 -636 91 -136 94 -111 -29
-234 l-108 -108 -65 79 c-332 403 -518 925 -518 1459 0 181 12 302 46 473 62
308 193 611 377 871 61 86 188 240 197 240 3 0 25 -37 50 -82 25 -45 75 -129
112 -187 l67 -106 -42 -3 c-38 -3 -51 -12 -144 -105 l-103 -102 0 -201 0 -202
236 -140 236 -139 281 120 282 119 103 -51 c58 -29 105 -51 107 -49 5 7 205
614 205 624 0 6 -105 52 -233 102 -190 75 -242 92 -286 92 -62 0 -63 -4 7 106
27 44 76 131 110 194 146 277 178 434 122 613 -10 31 -15 59 -11 61 13 9 260
56 336 64 114 13 399 14 513 1z m914 -885 c117 -30 236 -120 294 -223 36 -63
64 -165 64 -232 0 -110 -78 -295 -230 -544 -87 -142 -240 -365 -250 -365 -11
0 -214 303 -284 423 -65 110 -146 277 -171 352 -39 115 -29 224 31 344 99 198
329 302 546 245z m-1825 -366 c87 -34 160 -63 162 -64 3 -3 -98 -315 -104
-322 -2 -2 -26 8 -54 22 -28 14 -55 26 -61 26 -6 0 -133 -52 -284 -116 l-274
-116 -166 98 -165 99 -1 120 0 119 57 58 57 58 71 0 70 -1 74 -99 c40 -55 76
-100 80 -100 8 0 36 37 135 173 l78 107 84 0 c79 0 92 -3 241 -62z m2785 -113
c91 -202 163 -468 187 -697 6 -54 11 -165 11 -248 0 -426 -109 -827 -322
-1185 -159 -266 -377 -506 -628 -691 -61 -45 -167 -114 -176 -114 -3 0 -4 21
-2 47 l3 46 114 38 c63 21 115 40 117 42 2 1 23 161 48 355 l46 353 -100 200
c-55 109 -104 199 -108 199 -4 0 -68 -20 -142 -45 -124 -42 -142 -45 -236 -45
-70 0 -105 -4 -110 -12 -5 -7 -60 -186 -124 -398 l-117 -385 -109 -3 -109 -3
-62 -62 -63 -61 -63 62 -63 62 -97 0 -97 0 0 320 0 320 218 0 217 0 153 153
152 152 -121 199 -120 199 128 123 128 123 107 0 108 1 71 -95 c39 -52 75 -95
79 -95 18 0 273 361 388 548 l32 52 230 0 230 0 0 223 0 222 -119 77 c-73 47
-120 85 -124 97 -5 21 -4 21 199 19 l205 -3 41 -90z m-402 -157 l50 -33 -2
-100 -3 -100 -107 -3 c-60 -1 -108 1 -108 6 0 5 18 47 39 93 22 46 45 103 52
127 7 23 16 42 21 42 4 0 31 -15 58 -32z m-2879 -804 c221 -65 374 -273 356
-484 -12 -144 -134 -385 -369 -733 -55 -81 -104 -147 -109 -147 -4 0 -46 55
-92 123 -253 367 -387 639 -387 785 0 68 28 169 64 233 102 180 343 280 537
223z m-192 -1541 c34 -46 66 -83 70 -83 5 0 27 25 50 55 23 30 46 55 52 55 5
0 57 -12 114 -26 l105 -26 0 -67 0 -66 -186 -93 c-102 -51 -190 -89 -197 -86
-24 14 -173 134 -227 183 l-55 50 100 100 c54 56 102 97 106 93 3 -4 34 -44
68 -89z"/>
<path d="M1263 4865 c-160 -43 -266 -160 -295 -326 -31 -179 79 -366 255 -431
l57 -21 0 -83 0 -84 75 0 75 0 0 85 c0 84 0 85 28 91 100 25 219 123 260 217
70 157 39 329 -80 448 -56 56 -103 83 -185 104 -70 18 -121 18 -190 0z m192
-164 c80 -36 132 -107 142 -191 9 -78 -12 -137 -71 -195 -74 -73 -152 -92
-248 -59 -196 66 -213 345 -26 438 63 32 143 35 203 7z"/>
<path d="M2453 3364 l-57 -173 39 -81 39 -80 -38 -118 c-21 -64 -41 -122 -43
-129 -3 -6 95 -86 216 -177 l221 -166 107 215 108 215 -89 267 c-48 148 -93
273 -100 279 -6 6 -86 36 -178 67 l-167 55 -58 -174z m234 -48 l52 -17 65
-197 c36 -108 66 -205 66 -215 0 -14 -82 -191 -95 -205 -2 -2 -48 30 -103 72
l-100 76 36 109 36 110 -39 80 c-37 77 -38 82 -26 122 22 74 31 91 44 86 6 -2
35 -12 64 -21z"/>
<path d="M3520 3830 c-245 -52 -382 -320 -281 -553 41 -93 137 -181 232 -212
l49 -17 0 -79 0 -79 80 0 80 0 0 79 0 78 58 22 c81 30 147 82 193 153 51 79
64 125 62 223 -1 129 -51 230 -153 311 -80 63 -217 95 -320 74z m206 -186
c129 -79 153 -260 48 -368 -46 -47 -85 -67 -149 -73 -151 -16 -280 115 -262
267 10 84 62 154 142 192 62 29 158 21 221 -18z"/>
<path d="M1207 2390 c-114 -20 -237 -114 -284 -216 -105 -231 4 -474 250 -557
14 -5 17 -19 17 -92 l0 -85 80 0 80 0 0 84 0 83 46 13 c64 18 157 81 195 132
144 195 97 458 -103 584 -79 50 -186 71 -281 54z m148 -161 c53 -14 136 -99
153 -155 26 -89 4 -179 -59 -243 -53 -53 -112 -75 -188 -69 -180 13 -283 219
-183 366 64 95 164 132 277 101z"/>
</g>
</svg>
